<?xml version="1.0" encoding="UTF-8" standalone="no"?>
<!-- Created with Inkscape (http://www.inkscape.org/) -->

<svg
   width="914.67389"
   height="158.52499"
   viewBox="0 0 242.00746 41.943071"
   version="1.1"
   id="svg5"
   xmlns="http://www.w3.org/2000/svg"
   xmlns:svg="http://www.w3.org/2000/svg">
  <defs
     id="defs2">
    <rect
       x="505.71069"
       y="76.526367"
       width="130.94214"
       height="51.905792"
       id="rect7370" />
    <rect
       x="285.96136"
       y="43.179108"
       width="880.75824"
       height="233.89603"
       id="rect6638" />
    <rect
       x="-54.485043"
       y="8.3950729"
       width="107.28605"
       height="165.85509"
       id="rect1067" />
  </defs>
  <g
     id="layer1"
     transform="translate(-13.229167,-13.229167)">
    <path
       id="path3305"
       style="fill:#000000;fill-opacity:1;stroke:none;stroke-width:0.264583px;stroke-linecap:butt;stroke-linejoin:miter;stroke-opacity:1"
       d="M 26.458334,13.229167 13.229167,26.458334 24.961784,38.190951 49.923051,13.229167 Z M 41.18405,27.954883 16.222782,52.916667 H 39.6875 L 52.916667,39.6875 Z" />
    <g
       aria-label="Suffragium"
       transform="matrix(0.26458333,0,0,0.26458333,-10.427476,-0.32535458)"
       id="text6636"
       style="font-size:150px;line-height:1.25;white-space:pre;shape-inside:url(#rect6638)">
      <path
         d="m 355.78594,93.954687 q -0.9,1.575001 -1.95,2.325 -0.975,0.675001 -2.475,0.675001 -1.575,0 -3.45,-1.125 -1.8,-1.2 -4.35,-2.625001 -2.55,-1.424999 -6,-2.55 -3.375,-1.2 -8.025,-1.2 -4.2,0 -7.35,1.05 -3.15,0.975 -5.325,2.775001 -2.1,1.8 -3.15,4.349999 -1.05,2.475003 -1.05,5.475003 0,3.825 2.1,6.375 2.175,2.55 5.7,4.35 3.525,1.8 8.025,3.225 4.5,1.425 9.225,3.075 4.725,1.575 9.225,3.75 4.5,2.1 8.025,5.4 3.525,3.225 5.625,7.95 2.175,4.725 2.175,11.475 0,7.35 -2.55,13.8 -2.475,6.375 -7.35,11.175 -4.8,4.725 -11.775,7.5 -6.975,2.7 -15.975,2.7 -5.175,0 -10.2,-1.05 -5.025,-0.975 -9.675,-2.85 -4.575,-1.875 -8.625,-4.5 -4.05,-2.625 -7.2,-5.85 l 5.925,-9.675 q 0.75,-1.05 1.95,-1.725 1.2,-0.75 2.55,-0.75 1.875,0 4.05,1.575 2.175,1.5 5.175,3.375 3,1.875 6.975,3.45 4.05,1.5 9.675,1.5 8.625,0 13.35,-4.05 4.725,-4.125 4.725,-11.775 0,-4.275 -2.175,-6.975 -2.1,-2.7 -5.625,-4.5 -3.525,-1.875 -8.025,-3.15 -4.5,-1.275 -9.15,-2.775 -4.65,-1.5 -9.15,-3.6 -4.5,-2.1 -8.025,-5.475 -3.525,-3.375 -5.7,-8.4 -2.1,-5.1 -2.1,-12.525 0,-5.925003 2.325,-11.550003 2.4,-5.625 6.9,-9.975 4.5,-4.35 11.1,-6.975 6.6,-2.624999 15.15,-2.624999 9.6,0 17.7,3 8.1,2.999999 13.8,8.399999 z"
         style="font-weight:bold;font-family:Lato;-inkscape-font-specification:'Lato Bold'"
         id="path421" />
      <path
         d="m 393.81054,105.72969 v 48.9 q 0,7.05 3.225,10.95 3.3,3.825 9.825,3.825 4.8,0 9,-2.1 4.2,-2.175 7.95,-5.925 v -55.65 h 18.525 v 76.95 h -11.325 q -3.675,0 -4.65,-3.375 l -1.275,-6.15 q -2.4,2.4 -4.95,4.425 -2.55,1.95 -5.475,3.375 -2.925,1.425 -6.225,2.175 -3.3,0.75 -7.2,0.75 -6.3,0 -11.175,-2.1 -4.8,-2.175 -8.1,-6.075 -3.3,-3.9 -5.025,-9.225 -1.65,-5.4 -1.65,-11.85 v -48.9 z"
         style="font-weight:bold;font-family:Lato;-inkscape-font-specification:'Lato Bold'"
         id="path423" />
      <path
         d="m 466.03541,182.67969 v -63 l -6.675,-1.05 q -2.175,-0.45 -3.525,-1.5 -1.275,-1.125 -1.275,-3.15 v -7.575 h 11.475 v -4.35 q 0,-6.600003 1.95,-11.850003 2.025,-5.249999 5.7,-8.925 3.75,-3.675 9.075,-5.625 5.325,-1.95 12,-1.95 5.325,0 9.9,1.425001 l -0.375,9.225 q -0.075,1.05 -0.6,1.724999 -0.525,0.675 -1.425,1.050001 -0.825,0.299999 -1.95,0.45 -1.125,0.075 -2.4,0.075 -3.3,0 -5.925,0.75 -2.55,0.675001 -4.35,2.475001 -1.8,1.724999 -2.775,4.65 -0.9,2.849999 -0.9,7.125002 v 3.75 h 30.675 v -6.825003 q 0,-6.6 1.95,-11.85 2.025,-5.25 5.7,-8.925 3.75,-3.674999 9.075,-5.625 5.325,-1.95 12,-1.95 2.625,0 5.025,0.375 2.475,0.3 4.875,0.975001 l -0.45,9.299999 q -0.15,2.175 -2.025,2.775001 -1.8,0.524999 -4.275,0.524999 -3.3,0 -5.925,0.75 -2.55,0.675001 -4.35,2.475 -1.8,1.725001 -2.775,4.65 -0.9,2.85 -0.9,7.125003 v 6.225 h 19.95 v 13.2 h -19.35 v 63.075 h -18.525 v -63.075 h -30.075 v 63.075 z"
         style="font-weight:bold;font-family:Lato;-inkscape-font-specification:'Lato Bold'"
         id="path425" />
      <path
         d="m 563.01026,182.67969 v -76.95 h 10.875 q 2.85,0 3.975,1.05 1.125,0.975 1.5,3.6 l 1.05,8.7 q 3.675,-6.9 8.625,-10.8 4.95,-3.975 11.7,-3.975 5.325,0 8.55,2.325 l -1.2,13.875 q -0.375,1.35 -1.125,1.95 -0.675,0.525 -1.875,0.525 -1.125,0 -3.375,-0.375 -2.175,-0.375 -4.275,-0.375 -3.075,0 -5.475,0.9 -2.4,0.9 -4.35,2.625 -1.875,1.65 -3.375,4.05 -1.425,2.4 -2.7,5.475 v 47.4 z"
         style="font-weight:bold;font-family:Lato;-inkscape-font-specification:'Lato Bold'"
         id="path427" />
      <path
         d="m 668.31011,182.67969 q -2.625,0 -4.05,-0.75 -1.425,-0.825 -2.25,-3.225 l -1.65,-5.475 q -2.925,2.625 -5.7,4.65 -2.775,1.95 -5.775,3.3 -3,1.35 -6.45,2.025 -3.375,0.675 -7.5,0.675 -4.875,0 -9,-1.275 -4.125,-1.35 -7.125,-3.975 -3,-2.625 -4.65,-6.525 -1.65,-3.9 -1.65,-9.075 0,-4.35 2.25,-8.55 2.325,-4.275 7.65,-7.65 5.325,-3.45 14.175,-5.7 8.85,-2.25 22.05,-2.55 v -4.5 q 0,-7.725 -3.3,-11.4 -3.3,-3.75 -9.525,-3.75 -4.5,0 -7.5,1.05 -2.925,1.05 -5.175,2.4 -2.25,1.275 -4.125,2.325 -1.8,1.05 -4.05,1.05 -1.95,0 -3.3,-0.975 -1.35,-1.05 -2.175,-2.4 l -3.3,-5.925 q 13.275,-12.15 31.95,-12.15 6.75,0 12.075,2.25 5.325,2.175 9,6.15 3.675,3.9 5.55,9.375 1.95,5.475 1.95,12 v 48.6 z m -27.675,-11.55 q 5.7,0 9.825,-2.025 4.2,-2.1 8.175,-6.3 v -12.975 q -8.1,0.375 -13.575,1.425 -5.4,0.975 -8.7,2.55 -3.3,1.575 -4.725,3.675 -1.425,2.1 -1.425,4.575 0,4.875 2.85,6.975 2.925,2.1 7.575,2.1 z"
         style="font-weight:bold;font-family:Lato;-inkscape-font-specification:'Lato Bold'"
         id="path429" />
      <path
         d="m 722.23505,104.37969 q 4.95,0 9.225,1.05 4.35,0.975 8.025,2.925 h 22.125 v 6.9 q 0,3.3 -3.975,4.05 l -6.9,1.275 q 0.75,1.95 1.125,4.125 0.45,2.175 0.45,4.575 0,5.7 -2.325,10.35 -2.25,4.575 -6.3,7.8 -4.05,3.225 -9.6,5.025 -5.475,1.725 -11.85,1.725 -4.35,0 -8.475,-0.825 -3.6,2.175 -3.6,4.875 0,2.325 2.1,3.45 2.175,1.05 5.7,1.5 3.525,0.45 8.025,0.6 4.5,0.075 9.225,0.45 4.725,0.375 9.225,1.35 4.5,0.9 8.025,2.925 3.525,2.025 5.625,5.55 2.175,3.45 2.175,8.925 0,5.1 -2.55,9.9 -2.475,4.8 -7.275,8.55 -4.725,3.75 -11.7,6 -6.9,2.325 -15.75,2.325 -8.7,0 -15.15,-1.725 -6.45,-1.65 -10.725,-4.5 -4.275,-2.775 -6.375,-6.45 -2.1,-3.675 -2.1,-7.65 0,-5.325 3.225,-9 3.3,-3.675 8.925,-5.85 -3,-1.575 -4.8,-4.2 -1.8,-2.625 -1.8,-6.9 0,-1.725 0.6,-3.525 0.6,-1.875 1.8,-3.675 1.275,-1.8 3.15,-3.375 1.95,-1.65 4.5,-2.925 -5.85,-3.15 -9.225,-8.4 -3.3,-5.25 -3.3,-12.3 0,-5.7 2.25,-10.275 2.325,-4.65 6.375,-7.875 4.125,-3.3 9.675,-5.025 5.625,-1.725 12.225,-1.725 z m 20.925,81.75 q 0,-2.25 -1.35,-3.6 -1.35,-1.425 -3.675,-2.25 -2.325,-0.825 -5.475,-1.2 -3.075,-0.375 -6.6,-0.525 -3.45,-0.225 -7.2,-0.375 -3.675,-0.15 -7.2,-0.6 -3.075,1.725 -5.025,4.05 -1.875,2.325 -1.875,5.4 0,2.025 0.975,3.75 1.05,1.8 3.225,3.075 2.25,1.275 5.775,1.95 3.525,0.75 8.625,0.75 5.175,0 8.925,-0.825 3.75,-0.75 6.15,-2.175 2.475,-1.35 3.6,-3.3 1.125,-1.875 1.125,-4.125 z m -20.925,-43.8 q 3.45,0 6,-0.9 2.55,-0.975 4.2,-2.625 1.725,-1.65 2.55,-3.975 0.9,-2.325 0.9,-5.1 0,-5.7 -3.45,-9 -3.375,-3.375 -10.2,-3.375 -6.825,0 -10.275,3.375 -3.375,3.3 -3.375,9 0,2.7 0.825,5.025 0.9,2.325 2.55,4.05 1.725,1.65 4.275,2.625 2.625,0.9 6,0.9 z"
         style="font-weight:bold;font-family:Lato;-inkscape-font-specification:'Lato Bold'"
         id="path431" />
      <path
         d="m 792.51003,105.72969 v 76.95 h -18.6 v -76.95 z m 2.55,-22.425003 q 0,2.400001 -0.975,4.5 -0.975,2.1 -2.625,3.675 -1.575,1.575 -3.75,2.550001 -2.175,0.899999 -4.65,0.899999 -2.4,0 -4.575,-0.899999 -2.1,-0.975001 -3.675,-2.550001 -1.575,-1.575 -2.55,-3.675 -0.9,-2.099999 -0.9,-4.5 0,-2.475 0.9,-4.65 0.975,-2.174999 2.55,-3.75 1.575,-1.574999 3.675,-2.475 2.175,-0.975 4.575,-0.975 2.475,0 4.65,0.975 2.175,0.900001 3.75,2.475 1.65,1.575001 2.625,3.75 0.975,2.175 0.975,4.65 z"
         style="font-weight:bold;font-family:Lato;-inkscape-font-specification:'Lato Bold'"
         id="path433" />
      <path
         d="m 829.18501,105.72969 v 48.9 q 0,7.05 3.225,10.95 3.3,3.825 9.825,3.825 4.8,0 9,-2.1 4.2,-2.175 7.95,-5.925 v -55.65 h 18.525 v 76.95 h -11.325 q -3.675,0 -4.65,-3.375 l -1.275,-6.15 q -2.4,2.4 -4.95,4.425 -2.55,1.95 -5.475,3.375 -2.925,1.425 -6.225,2.175 -3.3,0.75 -7.2,0.75 -6.3,0 -11.175,-2.1 -4.8,-2.175 -8.1,-6.075 -3.3,-3.9 -5.025,-9.225 -1.65,-5.4 -1.65,-11.85 v -48.9 z"
         style="font-weight:bold;font-family:Lato;-inkscape-font-specification:'Lato Bold'"
         id="path435" />
      <path
         d="m 896.00986,182.67969 v -76.95 h 11.325 q 3.6,0 4.725,3.375 l 1.2,5.7 q 2.025,-2.25 4.2,-4.125 2.25,-1.875 4.725,-3.225 2.55,-1.35 5.4,-2.1 2.925,-0.825 6.375,-0.825 7.275,0 11.925,3.975 4.725,3.9 7.05,10.425 1.8,-3.825 4.5,-6.525 2.7,-2.775 5.925,-4.5 3.225,-1.725 6.825,-2.55 3.675,-0.825 7.35,-0.825 6.375,0 11.325,1.95 4.95,1.95 8.325,5.7 3.37504,3.75 5.10004,9.15 1.8,5.4 1.8,12.375 v 48.975 h -18.52504 v -48.975 q 0,-7.35 -3.225,-11.025 -3.225,-3.75 -9.45,-3.75 -2.85,0 -5.325,0.975 -2.4,0.975 -4.275,2.85 -1.8,1.8 -2.85,4.575 -1.05,2.775 -1.05,6.375 v 48.975 h -18.6 v -48.975 q 0,-7.725 -3.15,-11.25 -3.075,-3.525 -9.075,-3.525 -4.05,0 -7.575,2.025 -3.45,1.95 -6.45,5.4 v 56.325 z"
         style="font-weight:bold;font-family:Lato;-inkscape-font-specification:'Lato Bold'"
         id="path437" />
    </g>
    <text
       xml:space="preserve"
       transform="scale(0.26458333)"
       id="text7368"
       style="font-style:normal;font-weight:normal;font-size:40px;line-height:1.25;font-family:sans-serif;white-space:pre;shape-inside:url(#rect7370);fill:#000000;fill-opacity:1;stroke:none" />
  </g>
</svg>
